<svg width="320" height="80" viewBox="0 0 320 80" fill="none" xmlns="http://www.w3.org/2000/svg">
  <rect width="320" height="80" fill="#212121" />
  <path
    d="M28.5098 31.384C27.2511 31.384 26.1844 31.2133 25.3098 30.872C24.4351 30.5307 23.7204 30.0613 23.1658 29.464C22.6324 28.8453 22.2484 28.1093 22.0138 27.256C21.7791 26.4027 21.6618 25.4533 21.6618 24.408V18.808H17.6618V15.32L21.8858 15.128L22.4938 10.264H26.3658V15.128H33.0858V18.808H26.3658V24.376C26.3658 25.592 26.6324 26.456 27.1658 26.968C27.6991 27.4587 28.5524 27.704 29.7258 27.704C30.3231 27.704 30.8671 27.6507 31.3578 27.544C31.8698 27.4373 32.3711 27.2987 32.8618 27.128L33.6938 30.52C32.9898 30.7333 32.2111 30.9253 31.3578 31.096C30.5258 31.288 29.5764 31.384 28.5098 31.384ZM42.4173 31.384C40.6039 31.384 39.2919 30.808 38.4813 29.656C37.6706 28.504 37.2653 26.9253 37.2653 24.92V15.128H41.9693V24.312C41.9693 25.3787 42.1293 26.1573 42.4493 26.648C42.7693 27.1387 43.3773 27.384 44.2733 27.384C44.8706 27.384 45.3933 27.256 45.8413 27C46.3106 26.744 46.8226 26.264 47.3773 25.56V15.128H52.0813V31H48.2413L47.8893 28.728H47.7613C47.0573 29.5387 46.2786 30.1893 45.4253 30.68C44.5719 31.1493 43.5693 31.384 42.4173 31.384Z"
    fill="#003EA2" />
  <path
    d="M83.1283 31.384C81.6989 31.384 80.3016 31.1493 78.9363 30.68C77.5709 30.2107 76.3763 29.6347 75.3523 28.952L77.3683 26.008C78.3496 26.6267 79.3736 27.096 80.4403 27.416C81.5069 27.736 82.6163 27.896 83.7683 27.896C84.6429 27.896 85.2829 27.768 85.6883 27.512C86.0936 27.256 86.2963 26.936 86.2963 26.552C86.2963 26.3387 86.2323 26.1467 86.1043 25.976C85.9976 25.8053 85.7949 25.656 85.4963 25.528C85.2189 25.3787 84.8243 25.24 84.3123 25.112C83.8003 24.984 83.1603 24.8347 82.3923 24.664C80.2376 24.1947 78.6909 23.5653 77.7523 22.776C76.8136 21.9653 76.3443 20.9413 76.3443 19.704C76.3443 18.9787 76.5149 18.3067 76.8563 17.688C77.1976 17.0693 77.6776 16.5467 78.2963 16.12C78.9363 15.6933 79.7043 15.3627 80.6003 15.128C81.4963 14.872 82.5096 14.744 83.6403 14.744C85.0696 14.744 86.3603 14.9787 87.5123 15.448C88.6856 15.896 89.6883 16.3867 90.5203 16.92L88.4083 19.736C87.5976 19.2453 86.7549 18.872 85.8803 18.616C85.0056 18.36 84.1203 18.232 83.2243 18.232C82.4776 18.232 81.9229 18.3493 81.5603 18.584C81.1976 18.8187 81.0163 19.1173 81.0163 19.48C81.0163 19.928 81.2936 20.248 81.8483 20.44C82.4029 20.632 83.3523 20.8773 84.6963 21.176C85.9123 21.4533 86.9256 21.752 87.7363 22.072C88.5469 22.392 89.1869 22.7547 89.6562 23.16C90.1256 23.5653 90.4563 24.024 90.6483 24.536C90.8403 25.048 90.9363 25.624 90.9363 26.264C90.9363 26.9893 90.7656 27.6613 90.4243 28.28C90.0829 28.8987 89.5816 29.4427 88.9203 29.912C88.2803 30.36 87.4696 30.7227 86.4883 31C85.5283 31.256 84.4083 31.384 83.1283 31.384ZM102.444 31.384C101.398 31.384 100.385 31.2027 99.4038 30.84C98.4438 30.456 97.5798 29.912 96.8118 29.208C96.0651 28.504 95.4678 27.64 95.0198 26.616C94.5718 25.5707 94.3478 24.3867 94.3478 23.064C94.3478 21.7413 94.5718 20.568 95.0198 19.544C95.4678 18.4987 96.0651 17.624 96.8118 16.92C97.5798 16.216 98.4438 15.6827 99.4038 15.32C100.385 14.936 101.398 14.744 102.444 14.744C103.489 14.744 104.492 14.936 105.452 15.32C106.433 15.6827 107.297 16.216 108.044 16.92C108.812 17.624 109.42 18.4987 109.868 19.544C110.316 20.568 110.54 21.7413 110.54 23.064C110.54 24.3867 110.316 25.5707 109.868 26.616C109.42 27.64 108.812 28.504 108.044 29.208C107.297 29.912 106.433 30.456 105.452 30.84C104.492 31.2027 103.489 31.384 102.444 31.384ZM102.444 27.576C103.532 27.576 104.342 27.1707 104.876 26.36C105.43 25.5493 105.708 24.4507 105.708 23.064C105.708 21.6773 105.43 20.5787 104.876 19.768C104.342 18.9573 103.532 18.552 102.444 18.552C101.356 18.552 100.534 18.9573 99.9798 19.768C99.4464 20.5787 99.1798 21.6773 99.1798 23.064C99.1798 24.4507 99.4464 25.5493 99.9798 26.36C100.534 27.1707 101.356 27.576 102.444 27.576ZM124.671 31.384C122.666 31.384 121.151 30.7973 120.127 29.624C119.125 28.4293 118.623 26.8187 118.623 24.792V12.28H113.631V8.568H123.327V24.984C123.327 25.4747 123.391 25.8907 123.519 26.232C123.669 26.552 123.861 26.8187 124.095 27.032C124.351 27.224 124.629 27.3627 124.927 27.448C125.247 27.5333 125.578 27.576 125.919 27.576C126.282 27.576 126.655 27.544 127.039 27.48C127.445 27.3947 127.893 27.256 128.383 27.064L129.439 30.52C129.013 30.648 128.618 30.7653 128.255 30.872C127.893 30.9787 127.53 31.064 127.167 31.128C126.805 31.2133 126.421 31.2773 126.015 31.32C125.61 31.3627 125.162 31.384 124.671 31.384ZM138.355 31.384C136.541 31.384 135.229 30.808 134.419 29.656C133.608 28.504 133.203 26.9253 133.203 24.92V15.128H137.907V24.312C137.907 25.3787 138.067 26.1573 138.387 26.648C138.707 27.1387 139.315 27.384 140.211 27.384C140.808 27.384 141.331 27.256 141.779 27C142.248 26.744 142.76 26.264 143.315 25.56V15.128H148.019V31H144.179L143.827 28.728H143.699C142.995 29.5387 142.216 30.1893 141.363 30.68C140.509 31.1493 139.507 31.384 138.355 31.384ZM161.382 31.384C160.124 31.384 158.961 31.2027 157.894 30.84C156.828 30.456 155.889 29.912 155.078 29.208C154.289 28.504 153.67 27.64 153.222 26.616C152.774 25.5707 152.55 24.3867 152.55 23.064C152.55 21.7413 152.796 20.568 153.286 19.544C153.798 18.4987 154.47 17.624 155.302 16.92C156.156 16.216 157.137 15.6827 158.246 15.32C159.356 14.936 160.518 14.744 161.734 14.744C162.993 14.744 164.124 14.9467 165.126 15.352C166.15 15.7573 167.004 16.2693 167.686 16.888L165.51 19.8C164.337 18.968 163.164 18.552 161.99 18.552C160.625 18.552 159.516 18.9573 158.662 19.768C157.809 20.5787 157.382 21.6773 157.382 23.064C157.382 24.4507 157.788 25.5493 158.598 26.36C159.43 27.1707 160.508 27.576 161.83 27.576C162.662 27.576 163.42 27.4267 164.102 27.128C164.806 26.8293 165.446 26.4773 166.022 26.072L167.91 29.048C166.95 29.8587 165.894 30.456 164.742 30.84C163.59 31.2027 162.47 31.384 161.382 31.384ZM178.49 31V18.808H172.122V15.128H183.194V31H178.49ZM180.634 12.632C179.716 12.632 178.959 12.376 178.362 11.864C177.786 11.352 177.498 10.6587 177.498 9.784C177.498 8.90933 177.786 8.20533 178.362 7.672C178.959 7.11733 179.716 6.84 180.634 6.84C181.551 6.84 182.298 7.11733 182.874 7.672C183.471 8.20533 183.77 8.90933 183.77 9.784C183.77 10.6587 183.471 11.352 182.874 11.864C182.298 12.376 181.551 12.632 180.634 12.632ZM198.381 31.384C197.336 31.384 196.323 31.2027 195.341 30.84C194.381 30.456 193.517 29.912 192.749 29.208C192.003 28.504 191.405 27.64 190.957 26.616C190.509 25.5707 190.285 24.3867 190.285 23.064C190.285 21.7413 190.509 20.568 190.957 19.544C191.405 18.4987 192.003 17.624 192.749 16.92C193.517 16.216 194.381 15.6827 195.341 15.32C196.323 14.936 197.336 14.744 198.381 14.744C199.427 14.744 200.429 14.936 201.389 15.32C202.371 15.6827 203.235 16.216 203.981 16.92C204.749 17.624 205.357 18.4987 205.805 19.544C206.253 20.568 206.477 21.7413 206.477 23.064C206.477 24.3867 206.253 25.5707 205.805 26.616C205.357 27.64 204.749 28.504 203.981 29.208C203.235 29.912 202.371 30.456 201.389 30.84C200.429 31.2027 199.427 31.384 198.381 31.384ZM198.381 27.576C199.469 27.576 200.28 27.1707 200.813 26.36C201.368 25.5493 201.645 24.4507 201.645 23.064C201.645 21.6773 201.368 20.5787 200.813 19.768C200.28 18.9573 199.469 18.552 198.381 18.552C197.293 18.552 196.472 18.9573 195.917 19.768C195.384 20.5787 195.117 21.6773 195.117 23.064C195.117 24.4507 195.384 25.5493 195.917 26.36C196.472 27.1707 197.293 27.576 198.381 27.576ZM210.273 31V15.128H214.113L214.465 17.24H214.593C215.275 16.5573 216.054 15.9707 216.929 15.48C217.825 14.9893 218.87 14.744 220.065 14.744C221.857 14.744 223.169 15.32 224.001 16.472C224.833 17.624 225.249 19.2027 225.249 21.208V31H220.545V21.816C220.545 20.7493 220.374 19.9707 220.033 19.48C219.691 18.9893 219.083 18.744 218.209 18.744C217.569 18.744 217.003 18.8827 216.513 19.16C216.043 19.4373 215.531 19.8533 214.977 20.408V31H210.273ZM234.324 31.384C233.514 31.384 232.788 31.256 232.148 31C231.508 30.7653 230.964 30.4347 230.516 30.008C230.068 29.56 229.716 29.048 229.46 28.472C229.226 27.896 229.108 27.2667 229.108 26.584C229.108 25.688 229.3 24.9093 229.684 24.248C230.068 23.5653 230.676 22.9893 231.508 22.52C232.362 22.0507 233.45 21.6773 234.772 21.4C236.095 21.1013 237.695 20.8987 239.572 20.792C239.487 20.0667 239.167 19.5013 238.612 19.096C238.079 18.6907 237.268 18.488 236.18 18.488C235.412 18.488 234.634 18.6267 233.844 18.904C233.076 19.16 232.244 19.512 231.348 19.96L229.684 16.888C230.772 16.2693 231.935 15.7573 233.172 15.352C234.431 14.9467 235.743 14.744 237.108 14.744C239.327 14.744 241.076 15.3307 242.356 16.504C243.636 17.6773 244.276 19.48 244.276 21.912V31H240.436L240.084 29.208H239.956C239.146 29.8267 238.26 30.3493 237.3 30.776C236.34 31.1813 235.348 31.384 234.324 31.384ZM235.828 27.736C236.532 27.736 237.194 27.5973 237.812 27.32C238.431 27.0213 239.018 26.6587 239.572 26.232V23.608C238.399 23.672 237.428 23.7787 236.66 23.928C235.892 24.0773 235.284 24.2693 234.836 24.504C234.388 24.7173 234.068 24.9733 233.876 25.272C233.706 25.5707 233.62 25.8907 233.62 26.232C233.62 26.744 233.812 27.128 234.196 27.384C234.602 27.6187 235.146 27.736 235.828 27.736ZM250.056 31V15.128H253.896L254.28 18.584H254.376C255.165 17.2827 256.114 16.3227 257.224 15.704C258.333 15.064 259.528 14.744 260.808 14.744C261.512 14.744 262.077 14.7973 262.504 14.904C262.952 15.0107 263.41 15.1707 263.88 15.384L262.92 19.32C262.429 19.1707 261.981 19.064 261.576 19C261.192 18.9147 260.701 18.872 260.104 18.872C259.122 18.872 258.152 19.16 257.192 19.736C256.253 20.312 255.442 21.3147 254.76 22.744V31H250.056ZM274.427 31V18.808H268.059V15.128H279.131V31H274.427ZM276.571 12.632C275.654 12.632 274.897 12.376 274.299 11.864C273.723 11.352 273.435 10.6587 273.435 9.784C273.435 8.90933 273.723 8.20533 274.299 7.672C274.897 7.11733 275.654 6.84 276.571 6.84C277.489 6.84 278.235 7.11733 278.811 7.672C279.409 8.20533 279.707 8.90933 279.707 9.784C279.707 10.6587 279.409 11.352 278.811 11.864C278.235 12.376 277.489 12.632 276.571 12.632ZM294.319 31.384C293.273 31.384 292.26 31.2027 291.279 30.84C290.319 30.456 289.455 29.912 288.687 29.208C287.94 28.504 287.343 27.64 286.895 26.616C286.447 25.5707 286.223 24.3867 286.223 23.064C286.223 21.7413 286.447 20.568 286.895 19.544C287.343 18.4987 287.94 17.624 288.687 16.92C289.455 16.216 290.319 15.6827 291.279 15.32C292.26 14.936 293.273 14.744 294.319 14.744C295.364 14.744 296.367 14.936 297.327 15.32C298.308 15.6827 299.172 16.216 299.919 16.92C300.687 17.624 301.295 18.4987 301.743 19.544C302.191 20.568 302.415 21.7413 302.415 23.064C302.415 24.3867 302.191 25.5707 301.743 26.616C301.295 27.64 300.687 28.504 299.919 29.208C299.172 29.912 298.308 30.456 297.327 30.84C296.367 31.2027 295.364 31.384 294.319 31.384ZM294.319 27.576C295.407 27.576 296.217 27.1707 296.751 26.36C297.305 25.5493 297.583 24.4507 297.583 23.064C297.583 21.6773 297.305 20.5787 296.751 19.768C296.217 18.9573 295.407 18.552 294.319 18.552C293.231 18.552 292.409 18.9573 291.855 19.768C291.321 20.5787 291.055 21.6773 291.055 23.064C291.055 24.4507 291.321 25.5493 291.855 26.36C292.409 27.1707 293.231 27.576 294.319 27.576Z"
    fill="#CECE00" />
  <path
    d="M24.2858 71.384C23.2831 71.384 22.3658 71.192 21.5338 70.808C20.7231 70.424 20.0191 69.88 19.4218 69.176C18.8458 68.4507 18.3978 67.576 18.0778 66.552C17.7578 65.528 17.5978 64.3653 17.5978 63.064C17.5978 61.7627 17.7898 60.6 18.1738 59.576C18.5578 58.552 19.0591 57.688 19.6778 56.984C20.3178 56.2587 21.0431 55.704 21.8538 55.32C22.6644 54.936 23.5071 54.744 24.3818 54.744C25.2778 54.744 26.0351 54.8933 26.6538 55.192C27.2724 55.4693 27.8484 55.8853 28.3818 56.44H28.5098L28.2858 53.976V48.568H32.9897V71H29.1498L28.7978 69.368H28.7018C28.1044 69.944 27.4218 70.424 26.6538 70.808C25.8858 71.192 25.0964 71.384 24.2858 71.384ZM25.5017 67.544C26.0351 67.544 26.5258 67.4373 26.9738 67.224C27.4218 66.9893 27.8591 66.6053 28.2858 66.072V59.64C27.8591 59.256 27.4218 58.9893 26.9738 58.84C26.5471 58.6693 26.0991 58.584 25.6298 58.584C24.7551 58.584 23.9978 58.9467 23.3578 59.672C22.7391 60.3973 22.4298 61.5067 22.4298 63C22.4298 64.5787 22.6964 65.7307 23.2298 66.456C23.7631 67.1813 24.5204 67.544 25.5017 67.544ZM45.8413 71.384C44.6039 71.384 43.4413 71.2027 42.3533 70.84C41.2866 70.456 40.3586 69.912 39.5693 69.208C38.7799 68.504 38.1613 67.64 37.7133 66.616C37.2653 65.5707 37.0413 64.3867 37.0413 63.064C37.0413 61.7627 37.2653 60.6 37.7133 59.576C38.1826 58.5307 38.8013 57.656 39.5693 56.952C40.3373 56.2267 41.2119 55.6827 42.1933 55.32C43.1959 54.936 44.2306 54.744 45.2973 54.744C46.5133 54.744 47.5906 54.936 48.5293 55.32C49.4679 55.704 50.2466 56.2373 50.8653 56.92C51.5053 57.6027 51.9853 58.4133 52.3053 59.352C52.6253 60.2693 52.7853 61.272 52.7853 62.36C52.7853 62.7867 52.7533 63.2027 52.6893 63.608C52.6466 63.992 52.6039 64.28 52.5613 64.472H41.7453C41.9799 65.624 42.5026 66.4667 43.3133 67C44.1239 67.5333 45.1799 67.8 46.4813 67.8C47.2066 67.8 47.8893 67.704 48.5293 67.512C49.1906 67.32 49.8733 67.0427 50.5773 66.68L52.1453 69.528C51.2279 70.104 50.2146 70.5627 49.1053 70.904C47.9959 71.224 46.9079 71.384 45.8413 71.384ZM45.4573 58.328C44.5186 58.328 43.7293 58.5733 43.0893 59.064C42.4706 59.5547 42.0439 60.3013 41.8093 61.304H48.5933C48.3586 59.32 47.3133 58.328 45.4573 58.328Z"
    fill="#BF0000" />
  <path
    d="M75.9603 76.888V55.128H79.8003L80.1523 56.728H80.2483C80.8883 56.152 81.6243 55.6827 82.4563 55.32C83.2883 54.936 84.1309 54.744 84.9843 54.744C85.9656 54.744 86.8509 54.936 87.6403 55.32C88.4296 55.704 89.1016 56.248 89.6562 56.952C90.2109 57.656 90.6269 58.5093 90.9043 59.512C91.2029 60.4933 91.3523 61.592 91.3523 62.808C91.3523 64.1733 91.1603 65.3893 90.7763 66.456C90.3923 67.5013 89.8803 68.3973 89.2403 69.144C88.6003 69.8693 87.8643 70.424 87.0323 70.808C86.2216 71.192 85.3683 71.384 84.4723 71.384C83.0216 71.384 81.7203 70.808 80.5683 69.656H80.4403L80.6643 72.248V76.888H75.9603ZM83.3843 67.544C84.2803 67.544 85.0269 67.1813 85.6243 66.456C86.2216 65.7093 86.5203 64.5147 86.5203 62.872C86.5203 60.0133 85.5496 58.584 83.6083 58.584C82.6056 58.584 81.6243 59.0747 80.6643 60.056V66.488C81.1123 66.872 81.5709 67.1493 82.0403 67.32C82.5309 67.4693 82.9789 67.544 83.3843 67.544ZM96.5558 71V55.128H100.396L100.78 58.584H100.876C101.665 57.2827 102.614 56.3227 103.724 55.704C104.833 55.064 106.028 54.744 107.308 54.744C108.012 54.744 108.577 54.7973 109.004 54.904C109.452 55.0107 109.91 55.1707 110.38 55.384L109.42 59.32C108.929 59.1707 108.481 59.064 108.076 59C107.692 58.9147 107.201 58.872 106.604 58.872C105.622 58.872 104.652 59.16 103.692 59.736C102.753 60.312 101.942 61.3147 101.26 62.744V71H96.5558ZM121.631 71.384C120.586 71.384 119.573 71.2027 118.591 70.84C117.631 70.456 116.767 69.912 115.999 69.208C115.253 68.504 114.655 67.64 114.207 66.616C113.759 65.5707 113.535 64.3867 113.535 63.064C113.535 61.7413 113.759 60.568 114.207 59.544C114.655 58.4987 115.253 57.624 115.999 56.92C116.767 56.216 117.631 55.6827 118.591 55.32C119.573 54.936 120.586 54.744 121.631 54.744C122.677 54.744 123.679 54.936 124.639 55.32C125.621 55.6827 126.485 56.216 127.231 56.92C127.999 57.624 128.607 58.4987 129.055 59.544C129.503 60.568 129.727 61.7413 129.727 63.064C129.727 64.3867 129.503 65.5707 129.055 66.616C128.607 67.64 127.999 68.504 127.231 69.208C126.485 69.912 125.621 70.456 124.639 70.84C123.679 71.2027 122.677 71.384 121.631 71.384ZM121.631 67.576C122.719 67.576 123.53 67.1707 124.063 66.36C124.618 65.5493 124.895 64.4507 124.895 63.064C124.895 61.6773 124.618 60.5787 124.063 59.768C123.53 58.9573 122.719 58.552 121.631 58.552C120.543 58.552 119.722 58.9573 119.167 59.768C118.634 60.5787 118.367 61.6773 118.367 63.064C118.367 64.4507 118.634 65.5493 119.167 66.36C119.722 67.1707 120.543 67.576 121.631 67.576ZM140.083 77.752C139.059 77.752 138.099 77.6667 137.203 77.496C136.328 77.3467 135.571 77.1013 134.931 76.76C134.291 76.44 133.789 76.024 133.427 75.512C133.064 75 132.883 74.392 132.883 73.688C132.883 72.3867 133.704 71.3307 135.347 70.52V70.392C134.899 70.1147 134.515 69.7627 134.195 69.336C133.896 68.9093 133.747 68.3547 133.747 67.672C133.747 67.1387 133.917 66.6053 134.259 66.072C134.621 65.5387 135.08 65.08 135.635 64.696V64.568C135.059 64.184 134.568 63.6507 134.163 62.968C133.757 62.264 133.555 61.4427 133.555 60.504C133.555 59.544 133.736 58.712 134.099 58.008C134.483 57.2827 134.984 56.6853 135.603 56.216C136.221 55.7253 136.936 55.3627 137.747 55.128C138.579 54.872 139.443 54.744 140.339 54.744C141.32 54.744 142.195 54.872 142.963 55.128H149.395V58.584H146.195C146.365 58.8187 146.525 59.128 146.675 59.512C146.824 59.8747 146.899 60.2587 146.899 60.664C146.899 61.5813 146.728 62.3707 146.387 63.032C146.045 63.6933 145.576 64.248 144.979 64.696C144.403 65.1227 143.709 65.4427 142.899 65.656C142.109 65.8693 141.256 65.976 140.339 65.976C139.656 65.976 138.931 65.8693 138.163 65.656C137.928 65.8267 137.747 65.9973 137.619 66.168C137.512 66.3387 137.459 66.5627 137.459 66.84C137.459 67.2667 137.672 67.576 138.099 67.768C138.525 67.9387 139.208 68.024 140.147 68.024H143.091C145.181 68.024 146.771 68.3333 147.859 68.952C148.968 69.5707 149.523 70.5947 149.523 72.024C149.523 72.856 149.299 73.624 148.851 74.328C148.403 75.032 147.773 75.6293 146.963 76.12C146.152 76.632 145.16 77.0267 143.987 77.304C142.813 77.6027 141.512 77.752 140.083 77.752ZM140.339 63.128C141 63.128 141.565 62.9147 142.035 62.488C142.504 62.04 142.739 61.3787 142.739 60.504C142.739 59.672 142.504 59.032 142.035 58.584C141.565 58.136 141 57.912 140.339 57.912C139.677 57.912 139.112 58.136 138.643 58.584C138.195 59.032 137.971 59.672 137.971 60.504C137.971 61.3787 138.195 62.04 138.643 62.488C139.112 62.9147 139.677 63.128 140.339 63.128ZM140.755 74.776C142.035 74.776 143.069 74.5947 143.859 74.232C144.648 73.8693 145.043 73.4107 145.043 72.856C145.043 72.344 144.808 72.0133 144.339 71.864C143.869 71.7147 143.176 71.64 142.259 71.64H140.275C139.699 71.64 139.219 71.6187 138.835 71.576C138.472 71.5547 138.141 71.5013 137.843 71.416C137.437 71.672 137.149 71.9173 136.979 72.152C136.808 72.408 136.723 72.6853 136.723 72.984C136.723 73.5813 137.075 74.0293 137.779 74.328C138.504 74.6267 139.496 74.776 140.755 74.776ZM154.118 71V55.128H157.958L158.342 58.584H158.438C159.228 57.2827 160.177 56.3227 161.286 55.704C162.396 55.064 163.59 54.744 164.87 54.744C165.574 54.744 166.14 54.7973 166.566 54.904C167.014 55.0107 167.473 55.1707 167.942 55.384L166.982 59.32C166.492 59.1707 166.044 59.064 165.638 59C165.254 58.9147 164.764 58.872 164.166 58.872C163.185 58.872 162.214 59.16 161.254 59.736C160.316 60.312 159.505 61.3147 158.822 62.744V71H154.118ZM176.762 71.384C175.951 71.384 175.226 71.256 174.586 71C173.946 70.7653 173.402 70.4347 172.954 70.008C172.506 69.56 172.154 69.048 171.898 68.472C171.663 67.896 171.546 67.2667 171.546 66.584C171.546 65.688 171.738 64.9093 172.122 64.248C172.506 63.5653 173.114 62.9893 173.946 62.52C174.799 62.0507 175.887 61.6773 177.21 61.4C178.532 61.1013 180.132 60.8987 182.01 60.792C181.924 60.0667 181.604 59.5013 181.05 59.096C180.516 58.6907 179.706 58.488 178.618 58.488C177.85 58.488 177.071 58.6267 176.282 58.904C175.514 59.16 174.682 59.512 173.786 59.96L172.122 56.888C173.21 56.2693 174.372 55.7573 175.61 55.352C176.868 54.9467 178.18 54.744 179.546 54.744C181.764 54.744 183.514 55.3307 184.794 56.504C186.074 57.6773 186.714 59.48 186.714 61.912V71H182.874L182.522 69.208H182.394C181.583 69.8267 180.698 70.3493 179.738 70.776C178.778 71.1813 177.786 71.384 176.762 71.384ZM178.266 67.736C178.97 67.736 179.631 67.5973 180.25 67.32C180.868 67.0213 181.455 66.6587 182.01 66.232V63.608C180.836 63.672 179.866 63.7787 179.098 63.928C178.33 64.0773 177.722 64.2693 177.274 64.504C176.826 64.7173 176.506 64.9733 176.314 65.272C176.143 65.5707 176.058 65.8907 176.058 66.232C176.058 66.744 176.25 67.128 176.634 67.384C177.039 67.6187 177.583 67.736 178.266 67.736ZM189.901 71V55.128H193.453L193.773 57.08H193.901C194.2 56.44 194.616 55.896 195.149 55.448C195.683 54.9787 196.408 54.744 197.325 54.744C198.008 54.744 198.584 54.968 199.053 55.416C199.544 55.8427 199.885 56.4827 200.077 57.336C200.376 56.6107 200.803 56.0027 201.357 55.512C201.933 55 202.68 54.744 203.597 54.744C204.749 54.744 205.624 55.2027 206.221 56.12C206.84 57.016 207.149 58.264 207.149 59.864V71H202.669V60.184C202.669 59.6933 202.605 59.3307 202.477 59.096C202.349 58.8613 202.125 58.744 201.805 58.744C201.507 58.744 201.251 58.872 201.037 59.128C200.824 59.384 200.6 59.768 200.365 60.28V71H196.685V60.184C196.685 59.224 196.387 58.744 195.789 58.744C195.491 58.744 195.235 58.872 195.021 59.128C194.808 59.384 194.595 59.768 194.381 60.28V71H189.901ZM215.137 71.384C214.326 71.384 213.601 71.256 212.961 71C212.321 70.7653 211.777 70.4347 211.329 70.008C210.881 69.56 210.529 69.048 210.273 68.472C210.038 67.896 209.921 67.2667 209.921 66.584C209.921 65.688 210.113 64.9093 210.497 64.248C210.881 63.5653 211.489 62.9893 212.321 62.52C213.174 62.0507 214.262 61.6773 215.585 61.4C216.907 61.1013 218.507 60.8987 220.385 60.792C220.299 60.0667 219.979 59.5013 219.425 59.096C218.891 58.6907 218.081 58.488 216.993 58.488C216.225 58.488 215.446 58.6267 214.657 58.904C213.889 59.16 213.057 59.512 212.161 59.96L210.497 56.888C211.585 56.2693 212.747 55.7573 213.985 55.352C215.243 54.9467 216.555 54.744 217.921 54.744C220.139 54.744 221.889 55.3307 223.169 56.504C224.449 57.6773 225.089 59.48 225.089 61.912V71H221.249L220.897 69.208H220.769C219.958 69.8267 219.073 70.3493 218.113 70.776C217.153 71.1813 216.161 71.384 215.137 71.384ZM216.641 67.736C217.345 67.736 218.006 67.5973 218.625 67.32C219.243 67.0213 219.83 66.6587 220.385 66.232V63.608C219.211 63.672 218.241 63.7787 217.473 63.928C216.705 64.0773 216.097 64.2693 215.649 64.504C215.201 64.7173 214.881 64.9733 214.689 65.272C214.518 65.5707 214.433 65.8907 214.433 66.232C214.433 66.744 214.625 67.128 215.009 67.384C215.414 67.6187 215.958 67.736 216.641 67.736ZM238.132 71.384C236.874 71.384 235.711 71.2027 234.644 70.84C233.578 70.456 232.639 69.912 231.828 69.208C231.039 68.504 230.42 67.64 229.972 66.616C229.524 65.5707 229.3 64.3867 229.3 63.064C229.3 61.7413 229.546 60.568 230.036 59.544C230.548 58.4987 231.22 57.624 232.052 56.92C232.906 56.216 233.887 55.6827 234.996 55.32C236.106 54.936 237.268 54.744 238.484 54.744C239.743 54.744 240.874 54.9467 241.876 55.352C242.9 55.7573 243.754 56.2693 244.436 56.888L242.26 59.8C241.087 58.968 239.914 58.552 238.74 58.552C237.375 58.552 236.266 58.9573 235.412 59.768C234.559 60.5787 234.132 61.6773 234.132 63.064C234.132 64.4507 234.538 65.5493 235.348 66.36C236.18 67.1707 237.258 67.576 238.58 67.576C239.412 67.576 240.17 67.4267 240.852 67.128C241.556 66.8293 242.196 66.4773 242.772 66.072L244.66 69.048C243.7 69.8587 242.644 70.456 241.492 70.84C240.34 71.2027 239.22 71.384 238.132 71.384ZM255.24 71V58.808H248.872V55.128H259.944V71H255.24ZM257.384 52.632C256.466 52.632 255.709 52.376 255.112 51.864C254.536 51.352 254.248 50.6587 254.248 49.784C254.248 48.9093 254.536 48.2053 255.112 47.672C255.709 47.1173 256.466 46.84 257.384 46.84C258.301 46.84 259.048 47.1173 259.624 47.672C260.221 48.2053 260.52 48.9093 260.52 49.784C260.52 50.6587 260.221 51.352 259.624 51.864C259.048 52.376 258.301 52.632 257.384 52.632ZM275.131 71.384C274.086 71.384 273.073 71.2027 272.091 70.84C271.131 70.456 270.267 69.912 269.499 69.208C268.753 68.504 268.155 67.64 267.707 66.616C267.259 65.5707 267.035 64.3867 267.035 63.064C267.035 61.7413 267.259 60.568 267.707 59.544C268.155 58.4987 268.753 57.624 269.499 56.92C270.267 56.216 271.131 55.6827 272.091 55.32C273.073 54.936 274.086 54.744 275.131 54.744C276.177 54.744 277.179 54.936 278.139 55.32C279.121 55.6827 279.985 56.216 280.731 56.92C281.499 57.624 282.107 58.4987 282.555 59.544C283.003 60.568 283.227 61.7413 283.227 63.064C283.227 64.3867 283.003 65.5707 282.555 66.616C282.107 67.64 281.499 68.504 280.731 69.208C279.985 69.912 279.121 70.456 278.139 70.84C277.179 71.2027 276.177 71.384 275.131 71.384ZM275.131 67.576C276.219 67.576 277.03 67.1707 277.563 66.36C278.118 65.5493 278.395 64.4507 278.395 63.064C278.395 61.6773 278.118 60.5787 277.563 59.768C277.03 58.9573 276.219 58.552 275.131 58.552C274.043 58.552 273.222 58.9573 272.667 59.768C272.134 60.5787 271.867 61.6773 271.867 63.064C271.867 64.4507 272.134 65.5493 272.667 66.36C273.222 67.1707 274.043 67.576 275.131 67.576ZM274.939 53.048L272.635 50.744L277.531 44.92L280.731 48.056L274.939 53.048ZM287.023 71V55.128H290.863L291.215 57.24H291.343C292.025 56.5573 292.804 55.9707 293.679 55.48C294.575 54.9893 295.62 54.744 296.815 54.744C298.607 54.744 299.919 55.32 300.751 56.472C301.583 57.624 301.999 59.2027 301.999 61.208V71H297.295V61.816C297.295 60.7493 297.124 59.9707 296.783 59.48C296.441 58.9893 295.833 58.744 294.959 58.744C294.319 58.744 293.753 58.8827 293.263 59.16C292.793 59.4373 292.281 59.8533 291.727 60.408V71H287.023Z"
    fill="#007730" />
</svg>